{
  "run_dir": "/home/xinjie/Newton_Connection/Newton/phystwin_bridge/results/robot_rope_franka/candidates/20260401_081639_fixeddt_c08_gatepass",
  "summary": {
    "anchor_constraint_mode": "free_tabletop_rope",
    "anchor_count": 4,
    "anchor_mass_mode": "preserve",
    "apply_drag": true,
    "camera_profile": "hero",
    "contact_active_frames": 78,
    "contact_duration_s": 2.6013,
    "contact_peak_frame": 120,
    "contact_peak_proxy": "finger_span",
    "contact_phase_count": 78,
    "contact_proxy_counts": {
      "finger_span": 78
    },
    "contact_proxy_mode": "min(gripper_center,left_finger,right_finger,finger_span)",
    "contact_proxy_radii_m": {
      "finger_span": 0.033,
      "gripper_center": 0.033,
      "left_finger": 0.033,
      "right_finger": 0.033
    },
    "contact_proxy_radius_m": 0.033,
    "contact_started": true,
    "drag_ignore_gravity_axis": true,
    "drag_phase_gating": "always_on_quasi_static",
    "early_fall_acceleration_estimate_m_s2": null,
    "early_fall_com_horizontal_velocity_m_s": null,
    "ee_body_index": 6,
    "finger_span_clearance_min_m": -0.01132139377295971,
    "first_contact_frame": 77,
    "first_contact_phase": "push",
    "first_contact_time_s": 2.56795,
    "first_ground_contact_frame": 77,
    "first_ground_contact_time_s": 2.56795,
    "frame_dt": 0.033350000000000005,
    "frames": 187,
    "gravity_mag_m_s2": 9.8,
    "gripper_center_clearance_min_m": -0.0035864748060703278,
    "gripper_center_path_length_m": 0.3496764302253723,
    "gripper_center_speed_during_contact_mean_m_s": 0.04800930619239807,
    "gripper_center_speed_max_m_s": 0.10055076330900192,
    "gripper_center_speed_pre_contact_mean_m_s": null,
    "gripper_center_speed_release_mean_m_s": null,
    "gripper_center_tracking_error_during_contact_mean_m": 2.3937143396324245e-06,
    "gripper_center_tracking_error_max_m": 5.0786734391294885e-06,
    "gripper_center_tracking_error_mean_m": 2.803887582558673e-06,
    "gripper_center_tracking_error_pre_contact_mean_m": null,
    "gripper_center_tracking_error_release_mean_m": null,
    "ground_z_m": 0.0,
    "history_storage_files": {
      "body_q": "/home/xinjie/Newton_Connection/Newton/phystwin_bridge/results/robot_rope_franka/candidates/20260401_081639_fixeddt_c08_gatepass/presentation/work/robot_rope_tabletop_hero_body_q.npy",
      "body_vel": "/home/xinjie/Newton_Connection/Newton/phystwin_bridge/results/robot_rope_franka/candidates/20260401_081639_fixeddt_c08_gatepass/presentation/work/robot_rope_tabletop_hero_body_vel.npy",
      "ee_target_pos": "/home/xinjie/Newton_Connection/Newton/phystwin_bridge/results/robot_rope_franka/candidates/20260401_081639_fixeddt_c08_gatepass/presentation/work/robot_rope_tabletop_hero_ee_target_pos.npy",
      "particle_q_all": "/home/xinjie/Newton_Connection/Newton/phystwin_bridge/results/robot_rope_franka/candidates/20260401_081639_fixeddt_c08_gatepass/presentation/work/robot_rope_tabletop_hero_particle_q_all.npy",
      "particle_q_object": "/home/xinjie/Newton_Connection/Newton/phystwin_bridge/results/robot_rope_franka/candidates/20260401_081639_fixeddt_c08_gatepass/presentation/work/robot_rope_tabletop_hero_particle_q_object.npy"
    },
    "history_storage_mode": "memmap",
    "ik_target_blend": 0.2,
    "impact_speed_before_first_contact_m_s": 0.0003645981269619096,
    "ir_path": "/home/xinjie/Newton_Connection/Newton/phystwin_bridge/ir/rope_double_hand/phystwin_ir_v2_bf_strict.npz",
    "last_contact_frame": 154,
    "last_contact_time_s": 5.1359,
    "left_finger_clearance_min_m": -0.01132139191031456,
    "min_clearance_final_m": 0.08162160962820053,
    "min_clearance_min_m": -0.01132139377295971,
    "output_mp4": "/home/xinjie/Newton_Connection/Newton/phystwin_bridge/results/robot_rope_franka/candidates/20260401_081639_fixeddt_c08_gatepass/presentation/work/robot_rope_tabletop_hero.mp4",
    "particle_contact_kernel": false,
    "particle_contacts": false,
    "physics_validation_path": "/home/xinjie/Newton_Connection/Newton/phystwin_bridge/results/robot_rope_franka/candidates/20260401_081639_fixeddt_c08_gatepass/presentation/physics_validation.json",
    "post_release_horizontal_kick_m_s": null,
    "post_release_horizontal_kick_window_s": 0.08,
    "post_release_spring_energy_proxy": null,
    "pre_release_settle_damping_scale": 8.0,
    "pre_release_spring_energy_proxy": null,
    "preroll_frame_count": 20,
    "preroll_settle_metrics": {
      "com_horizontal_speed_max_m_s": 0.0035554314963519573,
      "com_horizontal_speed_threshold_m_s": 0.05,
      "particle_speed_mean_max_m_s": 0.018742647022008896,
      "particle_speed_mean_threshold_m_s": 0.08,
      "support_patch_speed_mean_max_m_s": 0.014434638433158398,
      "support_patch_speed_threshold_m_s": 0.02,
      "window_duration_s": 0.20010000000000003,
      "window_end_frame": 19,
      "window_start_frame": 14
    },
    "preroll_settle_pass": true,
    "preroll_settle_time_s": 0.63365,
    "recommended_hero_camera": {
      "fov": 33.0,
      "pitch": -18.0,
      "pos": [
        1.039743423461914,
        -1.0204944610595703,
        0.718804121017456
      ],
      "target": [
        0.03612615540623665,
        -0.11683344095945358,
        0.2800000011920929
      ],
      "yaw": 138.0
    },
    "recommended_validation_camera": {
      "fov": 42.0,
      "pitch": -17.0,
      "pos": [
        1.4406031370162964,
        -0.9792555570602417,
        0.7828793525695801
      ],
      "target": [
        0.016126153990626335,
        -0.1568334400653839,
        0.2800000011920929
      ],
      "yaw": 150.0
    },
    "release_frame": null,
    "release_time_s": null,
    "render_mode": "presentation",
    "replay_source": null,
    "right_finger_clearance_min_m": 0.0011114180088043213,
    "robot_geometry": "native_franka",
    "robot_motion_mode": "ik",
    "rope_com_displacement_m": 0.030267786234617233,
    "rope_com_horizontal_speed_mean_pre_release_m_s": null,
    "rope_com_z_min_m": 0.2364291101694107,
    "rope_mid_segment_final_z_delta_m": 0.0007488131523132324,
    "rope_mid_segment_peak_frame": 169,
    "rope_mid_segment_peak_z_delta_m": 0.0008237212896347046,
    "rope_min_z_m": 0.22169111669063568,
    "rope_particle_speed_mean_pre_release_m_s": null,
    "rope_surface_clearance_min_m": 0.19568873941898346,
    "rope_surface_clearance_to_table_min_m": -0.004311263561248779,
    "rope_total_mass": 3.0,
    "settle_gate_frame": null,
    "settle_gate_metrics": {},
    "settle_gate_pass": null,
    "settle_window_seconds": 0.08,
    "sim_dt": 5e-05,
    "substeps": 667,
    "support_contact_active_frames": 78,
    "support_contact_duration_s": 2.6013,
    "support_contact_peak_frame": 120,
    "support_contact_proxy_counts": {
      "finger_span": 78
    },
    "support_contact_proxy_mode": "min(gripper_center,left_finger,right_finger,finger_span)",
    "support_first_contact_frame": 77,
    "support_last_contact_frame": 154,
    "support_patch_center_m": [
      -0.00045183487236499786,
      0.0005746865645051003,
      0.24505753815174103
    ],
    "support_patch_indices": [
      0,
      3,
      1645,
      1752
    ],
    "support_patch_speed_mean_pre_release_m_s": null,
    "t_release_s": null,
    "table_contact_active_frames": 187,
    "table_contact_duration_s": 6.2364500000000005,
    "table_contact_peak_frame": 128,
    "table_top_z_m": 0.2,
    "task": "tabletop_push_hero",
    "task_duration_s": 6.2,
    "task_phase_sequence": [
      "settle",
      "approach",
      "push",
      "hold",
      "retract"
    ],
    "video_slowdown": 1.0,
    "visible_support_center_m": [
      -0.00045183487236499786,
      0.0005746865645051003,
      0.24505753815174103
    ],
    "wall_time_sec": 81.50667096598772
  },
  "summary_path": "/home/xinjie/Newton_Connection/Newton/phystwin_bridge/results/robot_rope_franka/candidates/20260401_081639_fixeddt_c08_gatepass/summary.json",
  "videos": [
    {
      "decode_log_path": "/home/xinjie/Newton_Connection/Newton/phystwin_bridge/results/robot_rope_franka/candidates/20260401_081639_fixeddt_c08_gatepass/qa/hero_presentation_decode.log",
      "ffprobe": {
        "format": {
          "bit_rate": "919135",
          "duration": "6.200000",
          "filename": "/home/xinjie/Newton_Connection/Newton/phystwin_bridge/results/robot_rope_franka/candidates/20260401_081639_fixeddt_c08_gatepass/hero_presentation.mp4",
          "format_long_name": "QuickTime / MOV",
          "format_name": "mov,mp4,m4a,3gp,3g2,mj2",
          "nb_programs": 0,
          "nb_streams": 1,
          "probe_score": 100,
          "size": "712330",
          "start_time": "0.000000",
          "tags": {
            "compatible_brands": "isomiso2avc1mp41",
            "encoder": "Lavf60.16.100",
            "major_brand": "isom",
            "minor_version": "512"
          }
        },
        "streams": [
          {
            "avg_frame_rate": "30/1",
            "bit_rate": "915157",
            "bits_per_raw_sample": "8",
            "chroma_location": "left",
            "closed_captions": 0,
            "codec_long_name": "H.264 / AVC / MPEG-4 AVC / MPEG-4 part 10",
            "codec_name": "h264",
            "codec_tag": "0x31637661",
            "codec_tag_string": "avc1",
            "codec_type": "video",
            "coded_height": 720,
            "coded_width": 1280,
            "disposition": {
              "attached_pic": 0,
              "captions": 0,
              "clean_effects": 0,
              "comment": 0,
              "default": 1,
              "dependent": 0,
              "descriptions": 0,
              "dub": 0,
              "forced": 0,
              "hearing_impaired": 0,
              "karaoke": 0,
              "lyrics": 0,
              "metadata": 0,
              "non_diegetic": 0,
              "original": 0,
              "still_image": 0,
              "timed_thumbnails": 0,
              "visual_impaired": 0
            },
            "duration": "6.200000",
            "duration_ts": 95232,
            "extradata_size": 46,
            "field_order": "progressive",
            "film_grain": 0,
            "has_b_frames": 2,
            "height": 720,
            "id": "0x1",
            "index": 0,
            "is_avc": "true",
            "level": 31,
            "nal_length_size": "4",
            "nb_frames": "186",
            "pix_fmt": "yuv420p",
            "profile": "High",
            "r_frame_rate": "30/1",
            "refs": 1,
            "start_pts": 0,
            "start_time": "0.000000",
            "tags": {
              "encoder": "Lavc60.31.102 libx264",
              "handler_name": "VideoHandler",
              "language": "und",
              "vendor_id": "[0][0][0][0]"
            },
            "time_base": "1/15360",
            "width": 1280
          }
        ]
      },
      "ffprobe_path": "/home/xinjie/Newton_Connection/Newton/phystwin_bridge/results/robot_rope_franka/candidates/20260401_081639_fixeddt_c08_gatepass/ffprobe/hero_presentation.json",
      "metrics": {
        "black_frame_fraction": 0.0,
        "contact_sheet_path": "/home/xinjie/Newton_Connection/Newton/phystwin_bridge/results/robot_rope_franka/candidates/20260401_081639_fixeddt_c08_gatepass/contact_sheets/hero_presentation.png",
        "decode_pass": true,
        "decoded_frame_count": 186,
        "duration_pass": true,
        "duration_s": 6.2,
        "encoded_fps": 30.0,
        "ffprobe_path": "/home/xinjie/Newton_Connection/Newton/phystwin_bridge/results/robot_rope_franka/candidates/20260401_081639_fixeddt_c08_gatepass/ffprobe/hero_presentation.json",
        "fps_pass": true,
        "keyframe_paths": [
          "/home/xinjie/Newton_Connection/Newton/phystwin_bridge/results/robot_rope_franka/candidates/20260401_081639_fixeddt_c08_gatepass/keyframes/hero_presentation_sample_01_frame_000000.png",
          "/home/xinjie/Newton_Connection/Newton/phystwin_bridge/results/robot_rope_franka/candidates/20260401_081639_fixeddt_c08_gatepass/keyframes/hero_presentation_sample_02_frame_000062.png",
          "/home/xinjie/Newton_Connection/Newton/phystwin_bridge/results/robot_rope_franka/candidates/20260401_081639_fixeddt_c08_gatepass/keyframes/hero_presentation_sample_03_frame_000123.png",
          "/home/xinjie/Newton_Connection/Newton/phystwin_bridge/results/robot_rope_franka/candidates/20260401_081639_fixeddt_c08_gatepass/keyframes/hero_presentation_sample_04_frame_000185.png"
        ],
        "max_pair_diff": 1.082534670829773,
        "max_static_run": 24,
        "mean_pair_diff": 0.4278283593974806,
        "median_pair_diff": 0.4437847137451172,
        "min_pair_diff": 0.0064062499441206455,
        "motion_pass": true,
        "name": "hero_presentation",
        "nb_frames": 186,
        "near_exact_repeat_fraction": 0.1945945945945946,
        "overall_pass": true,
        "path": "/home/xinjie/Newton_Connection/Newton/phystwin_bridge/results/robot_rope_franka/candidates/20260401_081639_fixeddt_c08_gatepass/hero_presentation.mp4",
        "resolution_height": 720,
        "resolution_pass": true,
        "resolution_width": 1280,
        "sample_paths": [
          "/home/xinjie/Newton_Connection/Newton/phystwin_bridge/results/robot_rope_franka/candidates/20260401_081639_fixeddt_c08_gatepass/keyframes/hero_presentation_sample_01_frame_000000.png",
          "/home/xinjie/Newton_Connection/Newton/phystwin_bridge/results/robot_rope_franka/candidates/20260401_081639_fixeddt_c08_gatepass/keyframes/hero_presentation_sample_02_frame_000062.png",
          "/home/xinjie/Newton_Connection/Newton/phystwin_bridge/results/robot_rope_franka/candidates/20260401_081639_fixeddt_c08_gatepass/keyframes/hero_presentation_sample_03_frame_000123.png",
          "/home/xinjie/Newton_Connection/Newton/phystwin_bridge/results/robot_rope_franka/candidates/20260401_081639_fixeddt_c08_gatepass/keyframes/hero_presentation_sample_04_frame_000185.png"
        ],
        "sampled_indices": [
          0,
          62,
          123,
          185
        ],
        "scene_readable_pass": true
      },
      "name": "hero_presentation",
      "video_path": "/home/xinjie/Newton_Connection/Newton/phystwin_bridge/results/robot_rope_franka/candidates/20260401_081639_fixeddt_c08_gatepass/hero_presentation.mp4"
    },
    {
      "decode_log_path": "/home/xinjie/Newton_Connection/Newton/phystwin_bridge/results/robot_rope_franka/candidates/20260401_081639_fixeddt_c08_gatepass/qa/hero_debug_decode.log",
      "ffprobe": {
        "format": {
          "bit_rate": "893081",
          "duration": "6.200000",
          "filename": "/home/xinjie/Newton_Connection/Newton/phystwin_bridge/results/robot_rope_franka/candidates/20260401_081639_fixeddt_c08_gatepass/hero_debug.mp4",
          "format_long_name": "QuickTime / MOV",
          "format_name": "mov,mp4,m4a,3gp,3g2,mj2",
          "nb_programs": 0,
          "nb_streams": 1,
          "probe_score": 100,
          "size": "692138",
          "start_time": "0.000000",
          "tags": {
            "compatible_brands": "isomiso2avc1mp41",
            "encoder": "Lavf60.16.100",
            "major_brand": "isom",
            "minor_version": "512"
          }
        },
        "streams": [
          {
            "avg_frame_rate": "30/1",
            "bit_rate": "889134",
            "bits_per_raw_sample": "8",
            "chroma_location": "left",
            "closed_captions": 0,
            "codec_long_name": "H.264 / AVC / MPEG-4 AVC / MPEG-4 part 10",
            "codec_name": "h264",
            "codec_tag": "0x31637661",
            "codec_tag_string": "avc1",
            "codec_type": "video",
            "coded_height": 720,
            "coded_width": 1280,
            "disposition": {
              "attached_pic": 0,
              "captions": 0,
              "clean_effects": 0,
              "comment": 0,
              "default": 1,
              "dependent": 0,
              "descriptions": 0,
              "dub": 0,
              "forced": 0,
              "hearing_impaired": 0,
              "karaoke": 0,
              "lyrics": 0,
              "metadata": 0,
              "non_diegetic": 0,
              "original": 0,
              "still_image": 0,
              "timed_thumbnails": 0,
              "visual_impaired": 0
            },
            "duration": "6.200000",
            "duration_ts": 95232,
            "extradata_size": 46,
            "field_order": "progressive",
            "film_grain": 0,
            "has_b_frames": 2,
            "height": 720,
            "id": "0x1",
            "index": 0,
            "is_avc": "true",
            "level": 31,
            "nal_length_size": "4",
            "nb_frames": "186",
            "pix_fmt": "yuv420p",
            "profile": "High",
            "r_frame_rate": "30/1",
            "refs": 1,
            "start_pts": 0,
            "start_time": "0.000000",
            "tags": {
              "encoder": "Lavc60.31.102 libx264",
              "handler_name": "VideoHandler",
              "language": "und",
              "vendor_id": "[0][0][0][0]"
            },
            "time_base": "1/15360",
            "width": 1280
          }
        ]
      },
      "ffprobe_path": "/home/xinjie/Newton_Connection/Newton/phystwin_bridge/results/robot_rope_franka/candidates/20260401_081639_fixeddt_c08_gatepass/ffprobe/hero_debug.json",
      "metrics": {
        "black_frame_fraction": 0.0,
        "contact_sheet_path": "/home/xinjie/Newton_Connection/Newton/phystwin_bridge/results/robot_rope_franka/candidates/20260401_081639_fixeddt_c08_gatepass/contact_sheets/hero_debug.png",
        "decode_pass": true,
        "decoded_frame_count": 186,
        "duration_pass": true,
        "duration_s": 6.2,
        "encoded_fps": 30.0,
        "ffprobe_path": "/home/xinjie/Newton_Connection/Newton/phystwin_bridge/results/robot_rope_franka/candidates/20260401_081639_fixeddt_c08_gatepass/ffprobe/hero_debug.json",
        "fps_pass": true,
        "keyframe_paths": [
          "/home/xinjie/Newton_Connection/Newton/phystwin_bridge/results/robot_rope_franka/candidates/20260401_081639_fixeddt_c08_gatepass/keyframes/hero_debug_sample_01_frame_000000.png",
          "/home/xinjie/Newton_Connection/Newton/phystwin_bridge/results/robot_rope_franka/candidates/20260401_081639_fixeddt_c08_gatepass/keyframes/hero_debug_sample_02_frame_000062.png",
          "/home/xinjie/Newton_Connection/Newton/phystwin_bridge/results/robot_rope_franka/candidates/20260401_081639_fixeddt_c08_gatepass/keyframes/hero_debug_sample_03_frame_000123.png",
          "/home/xinjie/Newton_Connection/Newton/phystwin_bridge/results/robot_rope_franka/candidates/20260401_081639_fixeddt_c08_gatepass/keyframes/hero_debug_sample_04_frame_000185.png"
        ],
        "max_pair_diff": 2.319444417953491,
        "max_static_run": 23,
        "mean_pair_diff": 0.4383623305028556,
        "median_pair_diff": 0.4038541615009308,
        "min_pair_diff": 0.0024826389271765947,
        "motion_pass": true,
        "name": "hero_debug",
        "nb_frames": 186,
        "near_exact_repeat_fraction": 0.1837837837837838,
        "overall_pass": true,
        "path": "/home/xinjie/Newton_Connection/Newton/phystwin_bridge/results/robot_rope_franka/candidates/20260401_081639_fixeddt_c08_gatepass/hero_debug.mp4",
        "resolution_height": 720,
        "resolution_pass": true,
        "resolution_width": 1280,
        "sample_paths": [
          "/home/xinjie/Newton_Connection/Newton/phystwin_bridge/results/robot_rope_franka/candidates/20260401_081639_fixeddt_c08_gatepass/keyframes/hero_debug_sample_01_frame_000000.png",
          "/home/xinjie/Newton_Connection/Newton/phystwin_bridge/results/robot_rope_franka/candidates/20260401_081639_fixeddt_c08_gatepass/keyframes/hero_debug_sample_02_frame_000062.png",
          "/home/xinjie/Newton_Connection/Newton/phystwin_bridge/results/robot_rope_franka/candidates/20260401_081639_fixeddt_c08_gatepass/keyframes/hero_debug_sample_03_frame_000123.png",
          "/home/xinjie/Newton_Connection/Newton/phystwin_bridge/results/robot_rope_franka/candidates/20260401_081639_fixeddt_c08_gatepass/keyframes/hero_debug_sample_04_frame_000185.png"
        ],
        "sampled_indices": [
          0,
          62,
          123,
          185
        ],
        "scene_readable_pass": true
      },
      "name": "hero_debug",
      "video_path": "/home/xinjie/Newton_Connection/Newton/phystwin_bridge/results/robot_rope_franka/candidates/20260401_081639_fixeddt_c08_gatepass/hero_debug.mp4"
    },
    {
      "decode_log_path": "/home/xinjie/Newton_Connection/Newton/phystwin_bridge/results/robot_rope_franka/candidates/20260401_081639_fixeddt_c08_gatepass/qa/validation_camera_decode.log",
      "ffprobe": {
        "format": {
          "bit_rate": "743770",
          "duration": "6.200000",
          "filename": "/home/xinjie/Newton_Connection/Newton/phystwin_bridge/results/robot_rope_franka/candidates/20260401_081639_fixeddt_c08_gatepass/validation_camera.mp4",
          "format_long_name": "QuickTime / MOV",
          "format_name": "mov,mp4,m4a,3gp,3g2,mj2",
          "nb_programs": 0,
          "nb_streams": 1,
          "probe_score": 100,
          "size": "576422",
          "start_time": "0.000000",
          "tags": {
            "compatible_brands": "isomiso2avc1mp41",
            "encoder": "Lavf60.16.100",
            "major_brand": "isom",
            "minor_version": "512"
          }
        },
        "streams": [
          {
            "avg_frame_rate": "30/1",
            "bit_rate": "739781",
            "bits_per_raw_sample": "8",
            "chroma_location": "left",
            "closed_captions": 0,
            "codec_long_name": "H.264 / AVC / MPEG-4 AVC / MPEG-4 part 10",
            "codec_name": "h264",
            "codec_tag": "0x31637661",
            "codec_tag_string": "avc1",
            "codec_type": "video",
            "coded_height": 720,
            "coded_width": 1280,
            "disposition": {
              "attached_pic": 0,
              "captions": 0,
              "clean_effects": 0,
              "comment": 0,
              "default": 1,
              "dependent": 0,
              "descriptions": 0,
              "dub": 0,
              "forced": 0,
              "hearing_impaired": 0,
              "karaoke": 0,
              "lyrics": 0,
              "metadata": 0,
              "non_diegetic": 0,
              "original": 0,
              "still_image": 0,
              "timed_thumbnails": 0,
              "visual_impaired": 0
            },
            "duration": "6.200000",
            "duration_ts": 95232,
            "extradata_size": 46,
            "field_order": "progressive",
            "film_grain": 0,
            "has_b_frames": 2,
            "height": 720,
            "id": "0x1",
            "index": 0,
            "is_avc": "true",
            "level": 31,
            "nal_length_size": "4",
            "nb_frames": "186",
            "pix_fmt": "yuv420p",
            "profile": "High",
            "r_frame_rate": "30/1",
            "refs": 1,
            "start_pts": 0,
            "start_time": "0.000000",
            "tags": {
              "encoder": "Lavc60.31.102 libx264",
              "handler_name": "VideoHandler",
              "language": "und",
              "vendor_id": "[0][0][0][0]"
            },
            "time_base": "1/15360",
            "width": 1280
          }
        ]
      },
      "ffprobe_path": "/home/xinjie/Newton_Connection/Newton/phystwin_bridge/results/robot_rope_franka/candidates/20260401_081639_fixeddt_c08_gatepass/ffprobe/validation_camera.json",
      "metrics": {
        "black_frame_fraction": 0.0,
        "contact_sheet_path": "/home/xinjie/Newton_Connection/Newton/phystwin_bridge/results/robot_rope_franka/candidates/20260401_081639_fixeddt_c08_gatepass/contact_sheets/validation_camera.png",
        "decode_pass": true,
        "decoded_frame_count": 186,
        "duration_pass": true,
        "duration_s": 6.2,
        "encoded_fps": 30.0,
        "ffprobe_path": "/home/xinjie/Newton_Connection/Newton/phystwin_bridge/results/robot_rope_franka/candidates/20260401_081639_fixeddt_c08_gatepass/ffprobe/validation_camera.json",
        "fps_pass": true,
        "keyframe_paths": [
          "/home/xinjie/Newton_Connection/Newton/phystwin_bridge/results/robot_rope_franka/candidates/20260401_081639_fixeddt_c08_gatepass/keyframes/validation_camera_sample_01_frame_000000.png",
          "/home/xinjie/Newton_Connection/Newton/phystwin_bridge/results/robot_rope_franka/candidates/20260401_081639_fixeddt_c08_gatepass/keyframes/validation_camera_sample_02_frame_000062.png",
          "/home/xinjie/Newton_Connection/Newton/phystwin_bridge/results/robot_rope_franka/candidates/20260401_081639_fixeddt_c08_gatepass/keyframes/validation_camera_sample_03_frame_000123.png",
          "/home/xinjie/Newton_Connection/Newton/phystwin_bridge/results/robot_rope_franka/candidates/20260401_081639_fixeddt_c08_gatepass/keyframes/validation_camera_sample_04_frame_000185.png"
        ],
        "max_pair_diff": 0.5736979246139526,
        "max_static_run": 24,
        "mean_pair_diff": 0.29127064505403205,
        "median_pair_diff": 0.3300173580646515,
        "min_pair_diff": 0.0013888889225199819,
        "motion_pass": true,
        "name": "validation_camera",
        "nb_frames": 186,
        "near_exact_repeat_fraction": 0.1945945945945946,
        "overall_pass": true,
        "path": "/home/xinjie/Newton_Connection/Newton/phystwin_bridge/results/robot_rope_franka/candidates/20260401_081639_fixeddt_c08_gatepass/validation_camera.mp4",
        "resolution_height": 720,
        "resolution_pass": true,
        "resolution_width": 1280,
        "sample_paths": [
          "/home/xinjie/Newton_Connection/Newton/phystwin_bridge/results/robot_rope_franka/candidates/20260401_081639_fixeddt_c08_gatepass/keyframes/validation_camera_sample_01_frame_000000.png",
          "/home/xinjie/Newton_Connection/Newton/phystwin_bridge/results/robot_rope_franka/candidates/20260401_081639_fixeddt_c08_gatepass/keyframes/validation_camera_sample_02_frame_000062.png",
          "/home/xinjie/Newton_Connection/Newton/phystwin_bridge/results/robot_rope_franka/candidates/20260401_081639_fixeddt_c08_gatepass/keyframes/validation_camera_sample_03_frame_000123.png",
          "/home/xinjie/Newton_Connection/Newton/phystwin_bridge/results/robot_rope_franka/candidates/20260401_081639_fixeddt_c08_gatepass/keyframes/validation_camera_sample_04_frame_000185.png"
        ],
        "sampled_indices": [
          0,
          62,
          123,
          185
        ],
        "scene_readable_pass": true
      },
      "name": "validation_camera",
      "video_path": "/home/xinjie/Newton_Connection/Newton/phystwin_bridge/results/robot_rope_franka/candidates/20260401_081639_fixeddt_c08_gatepass/validation_camera.mp4"
    }
  ]
}